<svg width="16" height="17" viewBox="0 0 16 17" fill="none" xmlns="http://www.w3.org/2000/svg">
<path d="M13.8333 16.9836H2.16667C1.24619 16.9836 0.5 16.2374 0.5 15.3169V3.65023C0.5 2.72975 1.24619 1.98356 2.16667 1.98356H3.83333V0.316895H5.5V1.98356H10.5V0.316895H12.1667V1.98356H13.8333C14.7538 1.98356 15.5 2.72975 15.5 3.65023V15.3169C15.5 16.2374 14.7538 16.9836 13.8333 16.9836ZM2.16667 6.98356V15.3169H13.8333V6.98356H2.16667ZM2.16667 3.65023V5.31689H13.8333V3.65023H2.16667ZM12.1667 13.6502H10.5V11.9836H12.1667V13.6502ZM8.83333 13.6502H7.16667V11.9836H8.83333V13.6502ZM5.5 13.6502H3.83333V11.9836H5.5V13.6502ZM12.1667 10.3169H10.5V8.65023H12.1667V10.3169ZM8.83333 10.3169H7.16667V8.65023H8.83333V10.3169ZM5.5 10.3169H3.83333V8.65023H5.5V10.3169Z" fill="#B7B7B7"/>
</svg>
